<svg width="113" height="99" viewBox="0 0 113 99" fill="none" xmlns="http://www.w3.org/2000/svg">
<path d="M38 1.5H75C95.1584 1.5 111.5 17.8416 111.5 38V61C111.5 81.1584 95.1584 97.5 75 97.5H38C17.8416 97.5 1.5 81.1584 1.5 61V38C1.5 17.8416 17.8416 1.5 38 1.5Z" fill="#00C1B0" fill-opacity="0.2" stroke="#00C1B0" stroke-width="3"/>
<path d="M28 48.28C28 48.28 36.5846 31.6949 55.4709 31.018C74.3571 30.341 85 49 85 49" stroke="#00C1B0" stroke-width="3"/>
<path d="M28 48C28 48 36.5846 66.2646 55.4709 66.9802C74.3571 67.6959 85 48.7308 85 48.7308" stroke="#00C1B0" stroke-width="3"/>
<circle cx="56.5" cy="48.5" r="10" stroke="#00C1B0" stroke-width="3"/>
</svg>
